<?xml version="1.0" encoding="UTF-8" standalone="no"?><!DOCTYPE svg PUBLIC "-//W3C//DTD SVG 1.1//EN" "http://www.w3.org/Graphics/SVG/1.1/DTD/svg11.dtd"><svg width="100%" height="100%" viewBox="0 0 100 100" version="1.1" xmlns="http://www.w3.org/2000/svg" xmlns:xlink="http://www.w3.org/1999/xlink" xml:space="preserve" xmlns:serif="http://www.serif.com/" style="fill-rule:evenodd;clip-rule:evenodd;stroke-linejoin:round;stroke-miterlimit:2;"><g id="_5e-tools-Logo" serif:id="5e-tools Logo"><path d="M10.82,58.63c1.155,-5.573 3.435,-10.075 6.841,-13.508c3.406,-3.432 7.8,-5.172 13.181,-5.22c6.436,0 10.939,3.409 13.508,10.226c1.642,4.322 2.463,10.374 2.463,18.156c-0,8.644 -1.248,15.318 -3.742,20.022c-3.263,6.245 -8.786,9.365 -16.567,9.36c-3.081,-0.063 -6.119,-0.747 -8.931,-2.01c-3.94,-1.637 -5.908,-3.607 -5.903,-5.912c-0,-0.476 1.589,-1.875 4.767,-4.179c3.178,-2.304 4.768,-5.133 4.768,-8.494c0.031,-2.61 -0.979,-5.127 -2.805,-6.992c-1.756,-1.911 -4.246,-2.984 -6.841,-2.948c-3.162,-0.131 -6.226,1.134 -8.375,3.457c-2.137,2.361 -3.277,5.461 -3.178,8.644c-0,7.008 2.977,12.626 8.931,16.853c5.297,3.74 11.539,5.612 18.727,5.617c9.809,0.174 19.322,-3.409 26.578,-10.011c7.238,-6.258 11.32,-15.43 11.124,-24.997c-0,-8.538 -3.245,-15.909 -9.734,-22.112c-6.488,-6.203 -14.045,-9.299 -22.668,-9.288c-3.652,-0.102 -7.279,0.638 -10.599,2.161c-3.449,1.803 -6.629,4.079 -9.448,6.762l2.495,-26.069c3.263,0.444 6.706,0.868 10.329,1.271c3.133,0.375 6.285,0.576 9.44,0.604c6.817,-0 12.342,-1.621 16.574,-4.863c4.232,-3.242 7.058,-8.104 8.478,-14.588l-3.75,-0.572c-0.923,2.374 -2.623,4.366 -4.823,5.649c-2.384,1.209 -5.036,1.794 -7.707,1.701c-3.72,0.009 -7.433,-0.323 -11.092,-0.994c-3.549,-0.662 -10.224,-2.251 -20.023,-4.767l-6.055,56.612l4.037,0.429Z" style="fill:#006bc4;fill-rule:nonzero;"/><path d="M99.968,63.381c-0.62,-7.14 -2.847,-13.017 -6.682,-17.631c-4.238,-5.069 -9.799,-7.604 -16.685,-7.604c-6.882,-0.178 -13.512,2.643 -18.156,7.723c-4.755,5.033 -7.342,11.742 -7.199,18.664c-0.144,7.248 2.344,14.308 7,19.864c4.672,5.61 10.764,8.414 18.275,8.414c5.913,0.091 11.629,-2.161 15.891,-6.261c4.381,-4.042 7.09,-9.585 7.588,-15.525l-3.345,-0c-1.001,4.915 -2.855,8.912 -5.562,11.989c-2.819,3.457 -7.061,5.452 -11.521,5.419c-6.844,0 -11.455,-2.267 -13.833,-6.801c-1.69,-3.146 -2.535,-8.486 -2.535,-16.018l-0.111,-2.193l36.875,-0.04Zm-36.764,-3.226c0,-5.376 0.853,-9.677 2.559,-12.903c2.166,-4.153 5.771,-6.229 10.814,-6.229c3.667,-0.131 7.148,1.664 9.169,4.727c1.859,2.696 2.789,6.076 2.789,10.139l-0,4.266l-25.331,0Z" style="fill:#006bc4;fill-rule:nonzero;"/></g></svg>