<?xml version="1.0" encoding="UTF-8" standalone="no"?><!DOCTYPE svg PUBLIC "-//W3C//DTD SVG 1.1//EN" "http://www.w3.org/Graphics/SVG/1.1/DTD/svg11.dtd"><svg width="100%" height="100%" viewBox="0 0 104 104" version="1.1" xmlns="http://www.w3.org/2000/svg" xmlns:xlink="http://www.w3.org/1999/xlink" xml:space="preserve" xmlns:serif="http://www.serif.com/" style="fill-rule:evenodd;clip-rule:evenodd;stroke-linecap:round;stroke-linejoin:round;stroke-miterlimit:1.5;"><g id="Forgotten-Realms-Icon" serif:id="Forgotten Realms Icon"><path d="M28.175,29.388c-12.084,12.813 4.372,26.389 23.186,25.996c13.618,-0.285 38.597,-11.095 23.185,-26.803c13.169,2.946 27.012,14.039 27.016,23.992c0.005,10.358 -21.59,29.234 -50.201,29.234c-29.308,0 -49.797,-19.975 -49.798,-30.645c-0.002,-7.392 10.574,-15.9 26.612,-21.774Z" style="fill:#e7cb00;fill-opacity:0.97;stroke:#01000f;stroke-opacity:0.96;stroke-width:1.67px;"/><path d="M51.966,21.323c8.415,-0.215 16.419,6.089 16.532,10.484c0.02,6.688 -8.753,11.7 -16.532,11.694c-8.526,-0.007 -16.537,-4.585 -16.533,-9.678c-0.17,-6.657 8.252,-12.288 16.533,-12.5Z" style="fill:#d4a000;stroke:#01000f;stroke-opacity:0.96;stroke-width:1.67px;"/></g></svg>