<?xml version="1.0" encoding="UTF-8" standalone="no"?><!DOCTYPE svg PUBLIC "-//W3C//DTD SVG 1.1//EN" "http://www.w3.org/Graphics/SVG/1.1/DTD/svg11.dtd"><svg width="100%" height="100%" viewBox="0 0 100 94" version="1.1" xmlns="http://www.w3.org/2000/svg" xmlns:xlink="http://www.w3.org/1999/xlink" xml:space="preserve" xmlns:serif="http://www.serif.com/" style="fill-rule:evenodd;clip-rule:evenodd;stroke-linejoin:round;stroke-miterlimit:2;"><g id="Icon:-D-D-Beyond" serif:id="Icon: D&amp;D Beyond"><path d="M75.568,63.639c2.348,1.643 3.977,4.543 3.977,6.816c0,2.84 -0.568,4.829 -2.556,6.818c-0,-0 0.284,0.284 1.704,0.284c7.955,-0 9.943,-4.418 9.943,-5.966c0,-4.546 -4.545,-5.682 -4.545,-5.682c1.42,-0.034 2.768,0.077 4.104,0.421c3.825,0.979 6.689,3.122 8.475,6.645c0.696,1.373 1.037,2.741 1.055,4.077c0.036,2.634 -1.136,5.332 -3.693,7.605c-4.202,3.738 -11.93,3.979 -12.214,3.979c0.748,0.825 2.841,2.557 5.966,2.557c1.421,0 3.125,-0.284 3.125,-0.284c-0.082,0.107 -1.704,1.989 -6,3.582c-1.764,0.589 -3.55,0.936 -5.364,0.964c-1.068,0.015 -2.143,-0.08 -3.227,-0.3c-4.332,-0.878 -7.307,-3.414 -9.173,-7.287c-0.622,-1.291 -1.236,-4.061 -1.236,-4.629c-1.404,1.372 -2.22,3.038 -2.273,4.829c0.284,3.693 2.303,5.073 2.273,5.114c-0.327,-0.134 -6.818,-1.421 -6.818,-10.512c-0.03,-1.459 0.007,-2.638 -0,-3.977c-0.011,-2.343 -1.08,-4.295 -2.914,-5.807c-3.088,-2.545 -6.188,-5.081 -9.302,-7.597c-2.125,-1.719 -3.45,-3.832 -3.48,-6.594c-0.018,-1.722 -0.834,-2.984 -2.179,-4c-0.846,-0.638 -1.702,-1.275 -2.468,-2c-1.353,-1.281 -1.605,-2.868 -1.143,-4.652c0.079,0.066 0.145,0.093 0.154,0.134c0.53,2.146 2.166,2.925 4.161,3.248c1.071,0.173 2.162,0.248 3.219,0.473c1.109,0.238 1.738,1.02 1.993,2.091c0.157,0.661 0.282,1.331 0.436,1.993c0.298,1.275 0.946,1.807 2.266,1.891c0.868,0.054 1.739,0.097 2.605,0.184c1.356,0.136 2.534,0.679 3.586,1.536c3.668,2.987 7.355,5.952 11.025,8.934c0.943,0.764 2.552,1.928 4.257,1.928c1.988,-0 4.545,-1.421 4.545,-4.262c0,-1.704 -0.284,-2.554 -0.284,-2.554Z" style="fill:#e53935;fill-rule:nonzero;"/><path d="M54.298,75.166c-2.589,-2.134 -5.191,-4.255 -7.798,-6.368c-1.457,2.361 -7.064,10.745 -14.975,10.745c-3.923,0 -7.514,-2.302 -9.366,-5.891c-1.114,-2.159 -1.704,-4.663 -1.704,-6.888c-0,-9.659 6.079,-14.944 6.225,-15.132c-1.65,-0.407 -2.894,-0.234 -4.237,0.659c-1.359,0.904 -3.816,2.448 -3.995,2.543c-0.266,-0.004 -0.266,-0.004 -0.266,-0.289l0.852,-5.681c-1.309,0.441 -4.261,1.988 -7.67,5.397c-1.705,1.705 -3.084,3.219 -3.084,3.219c-0.894,-3.219 0.527,-8.9 0.804,-10.889c0.164,-1.159 -0.284,-1.136 -0.284,-1.136c-0.568,-0 -2.266,1.738 -3.118,2.627c-2.634,2.741 -4.307,5.873 -5.25,9.563c-0.177,0.7 -0.289,1.589 -0.432,2.298c0.055,0.018 1.42,-1.988 2.557,-1.988c0.568,-0 0.602,0.87 0.584,1.177c-0.03,0.475 -0.191,0.95 -0.341,1.411c-1.055,3.262 -1.657,6.559 -1.682,9.912c-0.011,1.536 0.1,3.081 0.343,4.64c0.416,2.653 1.062,4.594 2.23,7.007c1.65,3.409 4.62,6.391 4.829,6.534c-0.143,-0.486 -0.427,-1.147 -0.475,-1.522c-0.095,-0.725 -0.243,-1.471 -0.163,-2.187c0.1,-0.9 0.886,-1.104 1.541,-0.468c0.293,0.286 3.511,3.33 5.409,4.571c4.302,2.809 8.841,4.136 13.577,4.152c2.461,0.009 4.975,-0.337 7.539,-1.009c3.709,-0.975 6.982,-2.78 9.9,-5.216c3.738,-3.118 6.618,-7.118 8.911,-11.339c-0.15,-0.152 -0.284,-0.307 -0.461,-0.452Zm12.338,-31.796c-4.527,2.987 -8.304,7.948 -11.602,12.191c-0.023,0.03 -0.036,0.062 -0.052,0.091c1.025,0.373 2.002,0.909 2.909,1.648c1.211,0.986 2.425,1.966 3.639,2.95c0.097,-0.198 0.188,-0.377 0.268,-0.543c2.247,-4.63 4.961,-10.173 8.4,-14.048c3.359,-3.786 9.257,-4.957 13.634,-2.843c0.545,0.264 0.986,0.379 1.418,0.364c0.441,-0.016 0.873,-0.166 1.398,-0.439c3.422,-1.768 7.12,-2.659 10.975,-2.634c0.759,0.007 2.377,0.234 2.377,0.234c-1.42,-1.421 -3.282,-2.864 -4.9,-3.775c-3.011,-1.693 -6.107,-2.475 -9.305,-2.475c-4.545,-0 -6.818,1.418 -8.034,1.418c-0.488,0 -0.727,-0.132 -0.895,-0.354c-0.148,-0.194 -0.091,-0.628 0.023,-0.898c0.668,-1.302 2.506,-2.337 2.656,-2.439c-1.42,0 -4.552,1.684 -6.354,3.08c-1.211,0.936 -2.414,1.884 -3.634,2.809c-0.246,0.186 -0.541,0.334 -0.837,0.42c-0.802,0.234 -1.211,-0.161 -0.975,-0.941c0.107,-0.35 0.271,-0.691 0.453,-1.009c0.293,-0.516 0.625,-1.011 0.966,-1.552c-8.653,5.434 -10.134,12.889 -10.073,12.82c2.541,-2.763 5.414,-4.92 8.807,-6.534c3.397,-1.616 7.102,-2.556 11.363,-2.556c0,-0 0.284,0.229 0.284,0.284c0,-0 -1.704,-0 -3.511,0.538c-3.411,0.784 -6.507,2.284 -9.398,4.193Z" style="fill:#e53935;fill-rule:nonzero;"/><path d="M33.523,18.75c-0,1.136 0.3,2.266 0.625,3.211c0.845,2.469 2.468,4.464 4.316,6.273c1.822,1.784 3.747,3.466 5.606,5.214c1.875,1.761 3.505,3.704 4.473,6.104c0.548,1.357 0.818,2.764 0.605,4.223c-0.059,0.407 0.091,0.602 0.452,0.757c0.923,0.393 1.509,1.045 1.559,2.079c0.023,0.489 0.327,0.412 0.621,0.259c1.627,-0.845 2.375,-2.125 2.479,-2.265c0.186,0.388 0.289,0.87 0.284,1.42c-0.027,3.059 -2.738,8.08 -5.291,9.08c0.034,-0.223 0.059,-0.403 0.091,-0.582c0.359,-2.018 -0.645,-3.673 -2.62,-4.332c-1.334,-0.446 -2.437,-0.455 -3.83,-0.475c-0.213,-0.002 -0.811,-0 -1.136,-0c0.107,-0.246 0.893,-1.871 1.068,-2.502c0.25,-0.898 -0.077,-1.539 -0.998,-1.741c-0.997,-0.221 -2.036,-0.359 -3.057,-0.355c-2.345,0.012 -4.67,0.293 -6.952,0.846c-0.318,0.077 -0.832,0.241 -1.143,0.343c1.989,-0 4.545,0.852 4.545,0.852c0,0 -1.136,2.273 -1.136,3.693c0,1.137 0.568,1.989 1.136,1.989c0.569,-0 0.885,-0.382 1.144,-0.568c-0.053,0.309 -0.366,1.943 -0.409,2.711c-0.066,1.207 0.409,1.834 1.829,1.834l0.852,0c-0.568,1.989 -4.845,4.607 -7.386,4.546c-0.168,-0.005 -0.325,-0.021 -0.473,-0.05c1.041,-0.519 2.609,-2.507 2.609,-3.357l-3.391,0.432c0,-0 1.157,-1.444 1.528,-2.169c0.961,-1.875 1.068,-3.79 -0.205,-5.581c-1.075,-1.514 -2.816,-2.162 -4.613,-2.341c-2.841,-0 -4.319,0.795 -4.546,0.852c1.293,-2.818 3.139,-4.557 5.966,-5.966c-2.273,-1.136 -4.545,-1.42 -4.545,-1.42c2.272,-1.421 5.681,-2.557 8.238,-3.125c-0.284,-0 -0.993,0.009 -1.136,-0c-8.523,-0 -11.862,4.404 -11.932,4.545c1.375,0.236 2.273,0.284 3.977,0.852c0,0 -4.545,0.853 -11.363,5.966c0.045,-0.257 0.852,-1.988 0.852,-3.693c-0,-5.966 -7.555,-4.77 -7.671,-4.829c0.185,-0.166 1.705,-1.421 6.507,-3.739c0.9,-0.486 3.437,-1.659 3.437,-3.08c-0,-1.988 -3.944,-4.886 -4.262,-5.113c3.125,-0 4.88,0.293 7.387,0.852c-1.337,-2.282 -1.709,-4.659 -1.105,-7.018c0.968,1.818 2.359,3.245 4.055,4.363c1.559,1.03 3.202,1.937 4.797,2.914c1.209,0.741 2.464,1.427 3.582,2.284c0.859,0.659 1.539,1.548 2.291,2.337c0.125,0.131 0.225,0.286 0.339,0.429c0.066,-0.032 0.129,-0.064 0.195,-0.095c-0.179,-0.448 -0.323,-0.914 -0.543,-1.344c-0.893,-1.738 -2.214,-3.131 -3.848,-4.209c-0.67,-0.443 -1.036,-0.968 -1.166,-1.711c-0.388,-2.202 -0.397,-4.361 0.025,-6.477c0.23,-1.143 1.605,-3.691 1.605,-3.691l-0,0.284c0.077,3.011 1.223,5.423 3.125,7.67c1.995,2.357 4.607,4.103 6.857,6.205c3.938,3.739 5.616,5.836 5.927,6.295c0,0 -0.116,-0.486 -0.186,-0.643c-1.082,-2.479 -2.834,-4.477 -4.796,-6.313c-1.704,-1.596 -3.436,-3.166 -5.17,-4.732c-0.628,-0.568 -0.998,-1.243 -1.098,-2.068c-0.398,-3.289 0.993,-6.11 1.023,-6.13Zm5.113,19.886c0,0 0.182,1.13 0.453,1.689c1.252,2.573 4.093,2.857 4.093,2.857c-0,-0 -0,-1.989 -2.841,-3.977c-0.839,-0.587 -1.705,-0.569 -1.705,-0.569Z" style="fill:#e53935;fill-rule:nonzero;"/><path d="M13.636,21.875c0.569,-2.841 2.273,-5.966 2.273,-5.966c0,0 1.052,3.575 2.841,5.966c0.884,1.182 2.066,2.495 3.441,3.402c0.259,0.171 0.52,0.339 0.786,0.505c-0.05,-1.532 0.071,-3.032 0.362,-4.487c0.247,-1.238 1.118,-3.018 1.659,-4.054l-0,-0.196c0.002,-4.393 3.054,-7.954 6.82,-7.954c3.766,-0 6.818,3.561 6.818,7.954c0,3.13 -0.252,4.68 -0.616,5.682c-0.031,0.084 -0.063,0.162 -0.095,0.241c0.298,0.482 0.652,0.968 1.057,1.466c0.025,0.03 0.045,0.059 0.07,0.089c0.425,0.513 0.909,1.043 1.478,1.6c1.07,1.047 2.218,2.095 3.325,3.107c0.75,0.684 1.5,1.368 2.238,2.063c0.18,0.168 0.323,0.334 0.493,0.502c3.509,-3.809 5.687,-8.745 5.687,-13.613c-0,-11.364 -9.157,-18.182 -20.455,-18.182c-11.298,-0 -20.454,7.102 -20.454,18.182c-0,2.763 0.722,5.543 1.966,8.136c-0.082,-1.225 0.061,-3.211 0.306,-4.443Z" style="fill:#e53935;fill-rule:nonzero;"/></g></svg>